<svg width="27" height="26" viewBox="0 0 27 26" fill="none" xmlns="http://www.w3.org/2000/svg">
<g id="&#208;&#152;&#208;&#186;&#208;&#190;&#208;&#189;&#208;&#186;&#208;&#184; &#208;&#180;&#208;&#187;&#209;&#143; &#209;&#132;&#208;&#184;&#208;&#187;&#209;&#140;&#209;&#130;&#209;&#128;&#208;&#176;">
<path id="Path 18" d="M16.6978 6.26207C16.6723 6.02023 16.7131 5.76848 16.8294 5.53483C17.1535 4.88335 17.9419 4.61928 18.5903 4.94502L20.1789 5.7432L22.1612 2.75539C22.5633 2.14934 23.3782 1.98558 23.9813 2.38961C24.5845 2.79364 24.7475 3.61247 24.3454 4.21851L22.5451 6.93198L23.8403 7.5827C24.4886 7.90844 24.7514 8.70064 24.4272 9.35212C24.3368 9.53379 24.2103 9.68534 24.0608 9.80237C24.3757 11.1991 24.3013 12.8556 23.831 14.5584C22.7445 18.4927 19.8345 21.8483 15.7934 23.2019C11.3772 24.681 7.65151 24.0571 4.72776 22.0985C3.64727 21.3747 2.91412 20.638 2.5158 20.1043C1.83014 19.1857 2.5593 17.8865 3.6964 18.0007C8.42436 18.4758 10.5286 16.8692 12.454 12.7123C12.5816 12.4369 12.7082 12.1541 12.8759 11.7724C12.924 11.6628 12.9797 11.5355 13.0835 11.2983C13.1677 11.1063 13.2304 10.9638 13.2922 10.8247C14.3239 8.50355 15.3503 6.97936 16.6978 6.26207Z" fill="#FF6633"/>
</g>
</svg>
